<?xml version="1.0" encoding="UTF-8"?>
<svg xmlns="http://www.w3.org/2000/svg" xmlns:xlink="http://www.w3.org/1999/xlink" viewBox="0 0 295 70.5">
  <defs>
    <style>
      .cls-1 {
        fill: gray;
      }

      .cls-2 {
        fill: #d1d3d4;
      }

      .cls-3 {
        fill: #7f3f98;
      }

      .cls-4 {
        fill: #414042;
      }

      .cls-5 {
        isolation: isolate;
      }

      .cls-6 {
        fill: url(#linear-gradient-5);
      }

      .cls-6, .cls-7, .cls-8, .cls-9, .cls-10, .cls-11 {
        mix-blend-mode: multiply;
        opacity: .5;
      }

      .cls-7 {
        fill: url(#linear-gradient-6);
      }

      .cls-8 {
        fill: url(#linear-gradient-2);
      }

      .cls-9 {
        fill: url(#linear-gradient-3);
      }

      .cls-10 {
        fill: url(#linear-gradient-4);
      }

      .cls-12 {
        fill: #72bf44;
      }

      .cls-13 {
        fill: #00b9ad;
      }

      .cls-14 {
        fill: #3069b3;
      }

      .cls-15 {
        fill: #f2665e;
      }

      .cls-11 {
        fill: url(#linear-gradient);
      }

      .cls-16, .cls-17 {
        fill: #939598;
      }

      .cls-17 {
        font-family: MyriadPro-Regular, 'Myriad Pro';
        font-size: 15.22px;
      }
    </style>
    <linearGradient id="linear-gradient" x1="37.27" y1="44.38" x2="26.88" y2="33.99" gradientUnits="userSpaceOnUse">
      <stop offset="0" stop-color="#fff"></stop>
      <stop offset="1" stop-color="#231f20"></stop>
    </linearGradient>
    <linearGradient id="linear-gradient-2" x1="32.64" y1="25.16" x2="22.29" y2="14.82" xlink:href="#linear-gradient"></linearGradient>
    <linearGradient id="linear-gradient-3" x1="22.41" y1="44.69" x2="11.38" y2="33.65" xlink:href="#linear-gradient"></linearGradient>
    <linearGradient id="linear-gradient-4" x1="55.39" y1="39.91" x2="33.23" y2="17.75" xlink:href="#linear-gradient"></linearGradient>
    <linearGradient id="linear-gradient-5" x1="42.79" y1="57.32" x2="30.78" y2="45.32" xlink:href="#linear-gradient"></linearGradient>
    <linearGradient id="linear-gradient-6" x1="20.09" y1="21.77" x2="13.89" y2="15.58" xlink:href="#linear-gradient"></linearGradient>
  </defs>
  <g class="cls-5">
    <g id="logo">
      <path class="cls-16" d="M77.13,61.29c-.3,0-.54-.24-.54-.54V9.24c0-.3.24-.54.54-.54s.54.24.54.54v51.52c0,.3-.24.54-.54.54Z"></path>
      <rect class="cls-16" x="30.42" y="35.8" width="11.52" height="14.98"></rect>
      <path class="cls-12" d="M41.94,9.54s-.03,0-.04-.01c-11.18,4.69-20.35,13.24-25.84,23.98h25.88V9.54Z"></path>
      <path class="cls-13" d="M28.13,60.3v-24.5h-13.17c-1.49,3.32-2.64,6.82-3.41,10.46,3.22,6.78,9.25,11.96,16.58,14.04Z"></path>
      <path class="cls-14" d="M44.24,50.78h12.13c3.3-4.39,5.26-9.86,5.26-15.78,0-11.39-7.25-21.09-17.38-24.75v40.52Z"></path>
      <path class="cls-15" d="M30.42,53.07v7.77c1.59.3,3.22.46,4.9.46,7.53,0,14.31-3.17,19.1-8.23h-24Z"></path>
      <path class="cls-3" d="M37.79,8.82c-.81-.08-1.64-.12-2.47-.12-13.9,0-25.26,10.78-26.23,24.43,0,0,0,0,0,0,0,0-.12,1.32-.04,3h0s0,.05,0,.08c0,.06,0,.13.01.19h0c.11,2.08.46,4.1,1.02,6.02.61-2.16,1.35-4.26,2.22-6.29,0,0,.64-1.67,1.17-2.88,5.18-10.55,13.79-19.19,24.31-24.43Z"></path>
      <rect class="cls-11" x="30.42" y="35.8" width="11.52" height="14.98"></rect>
      <path class="cls-8" d="M41.94,9.54s-.03,0-.04-.01c-11.18,4.69-20.35,13.24-25.84,23.98h25.88V9.54Z"></path>
      <path class="cls-9" d="M28.13,60.3v-24.5h-13.17c-1.49,3.32-2.64,6.82-3.41,10.46,3.22,6.78,9.25,11.96,16.58,14.04Z"></path>
      <path class="cls-10" d="M44.24,50.78h12.13c3.3-4.39,5.26-9.86,5.26-15.78,0-11.39-7.25-21.09-17.38-24.75v40.52Z"></path>
      <path class="cls-6" d="M30.42,53.07v7.77c1.59.3,3.22.46,4.9.46,7.53,0,14.31-3.17,19.1-8.23h-24Z"></path>
      <path class="cls-7" d="M37.79,8.82c-.81-.08-1.64-.12-2.47-.12-13.9,0-25.26,10.78-26.23,24.43,0,0,0,0,0,0,0,0-.12,1.32-.04,3h0s0,.05,0,.08c0,.06,0,.13.01.19h0c.11,2.08.46,4.1,1.02,6.02.61-2.16,1.35-4.26,2.22-6.29,0,0,.64-1.67,1.17-2.88,5.18-10.55,13.79-19.19,24.31-24.43Z"></path>
      <g>
        <path class="cls-4" d="M98.61,17.95h3.29s0,2.22,0,2.22c-.81.58-1.89.91-2.98.91-2.5,0-4.25-1.84-4.25-4.47v-.04c0-2.44,1.82-4.42,4.05-4.41,1.61,0,2.54.52,3.52,1.35l.1.08,1.6-1.9-.1-.08c-1.49-1.26-2.95-1.78-5.03-1.78-3.79,0-6.77,2.98-6.77,6.78v.04c0,3.97,2.8,6.75,6.8,6.75,2.54,0,4.37-1.11,5.45-2.03l.04-.04v-5.59s-5.73,0-5.73,0v2.22Z"></path>
        <polygon class="cls-4" points="109.92 10.05 107.4 10.05 107.4 23.17 116.68 23.17 116.68 20.86 109.91 20.86 109.92 10.05"></polygon>
        <path class="cls-4" d="M124.73,9.83c-3.85,0-6.88,2.98-6.88,6.78v.04c0,3.84,2.94,6.75,6.84,6.75,3.85,0,6.88-2.98,6.88-6.78v-.04c0-3.85-2.94-6.75-6.84-6.75ZM120.47,16.58c0-2.52,1.81-4.42,4.22-4.41,2.42,0,4.25,1.92,4.25,4.45v.04c0,2.52-1.81,4.42-4.22,4.42-2.42,0-4.25-1.91-4.25-4.45v-.04Z"></path>
        <path class="cls-4" d="M143.01,16.34c1.12-.66,1.66-1.59,1.66-2.84v-.04c0-.89-.29-1.62-.9-2.22-.77-.77-1.96-1.18-3.45-1.18h-5.9s0,13.12,0,13.12h6.08c3.06,0,4.89-1.36,4.89-3.65v-.04c0-1.52-.76-2.53-2.38-3.15ZM136.9,17.64h3.46c1.15,0,2.52.28,2.52,1.6v.04c0,1.43-1.48,1.64-2.36,1.64h-3.63s0-3.28,0-3.28ZM142.16,13.86c0,1.41-1.44,1.62-2.3,1.62h-2.96s0-3.17,0-3.17h3.13c1.36,0,2.14.55,2.14,1.51v.04Z"></path>
        <path class="cls-4" d="M154.94,9.97h-2.26s-5.78,13.21-5.78,13.21h2.59s1.32-3.11,1.32-3.11h5.92s1.3,3.11,1.3,3.11h2.67s-5.74-13.14-5.74-13.14l-.03-.08ZM155.8,17.82h-4.05s2.02-4.71,2.02-4.71l2.03,4.71Z"></path>
        <polygon class="cls-4" points="165.48 10.06 162.97 10.06 162.97 23.18 172.25 23.19 172.25 20.88 165.48 20.87 165.48 10.06"></polygon>
        <polygon class="cls-4" points="193.5 19.33 190.46 10.12 190.43 10.03 188.33 10.03 185.26 19.33 182.28 10.07 179.57 10.07 184.14 23.28 186.27 23.28 189.34 14.3 192.39 23.2 192.41 23.28 194.54 23.28 199.06 10.24 199.12 10.07 196.48 10.07 193.5 19.33"></polygon>
        <polygon class="cls-4" points="204.02 17.71 210.47 17.72 210.47 15.44 204.02 15.44 204.02 12.35 211.3 12.35 211.3 10.07 201.51 10.07 201.5 23.19 211.39 23.2 211.39 20.92 204.02 20.92 204.02 17.71"></polygon>
        <polygon class="cls-4" points="216.71 10.08 214.2 10.08 214.2 23.2 223.48 23.2 223.48 20.89 216.71 20.89 216.71 10.08"></polygon>
        <polygon class="cls-4" points="228.47 10.08 225.95 10.08 225.95 23.2 235.23 23.2 235.23 20.89 228.46 20.89 228.47 10.08"></polygon>
        <polygon class="cls-4" points="246.7 18.74 240.03 10.13 239.99 10.08 237.71 10.08 237.7 23.2 240.18 23.2 240.18 14.29 247.05 23.16 247.09 23.2 249.17 23.21 249.18 10.08 246.7 10.08 246.7 18.74"></polygon>
        <polygon class="cls-4" points="255.12 17.73 261.57 17.73 261.57 15.46 255.12 15.45 255.12 12.36 262.4 12.36 262.4 10.09 252.61 10.08 252.6 23.21 262.49 23.21 262.49 20.93 255.12 20.93 255.12 17.73"></polygon>
        <path class="cls-4" d="M270.42,15.5c-2.51-.6-2.96-1.02-2.95-1.9v-.04c0-.84.79-1.4,1.97-1.4,1.13,0,2.25.43,3.42,1.3l.1.08,1.36-1.91-.09-.07c-1.38-1.11-2.93-1.65-4.75-1.65-2.66,0-4.52,1.58-4.52,3.86v.04c0,2.43,1.61,3.29,4.38,3.97,2.39.55,2.81,1.03,2.81,1.85v.04c0,.91-.85,1.49-2.16,1.49-1.44,0-2.67-.51-3.98-1.64l-.1-.08-1.52,1.81.09.08c1.53,1.37,3.42,2.09,5.45,2.09,2.87,0,4.72-1.56,4.72-3.97v-.04c0-2.03-1.23-3.16-4.23-3.89Z"></path>
        <path class="cls-4" d="M282.37,15.5c-2.51-.6-2.96-1.02-2.96-1.9v-.04c0-.84.79-1.4,1.97-1.4,1.13,0,2.25.43,3.42,1.3l.1.08,1.36-1.91-.09-.07c-1.38-1.11-2.93-1.65-4.75-1.65-2.66,0-4.52,1.59-4.52,3.86v.04c0,2.43,1.6,3.29,4.38,3.97,2.39.55,2.81,1.03,2.81,1.85v.04c0,.91-.85,1.49-2.16,1.49-1.44,0-2.67-.51-3.98-1.64l-.1-.08-1.52,1.81.09.08c1.53,1.37,3.42,2.09,5.45,2.09,2.87,0,4.72-1.56,4.72-3.97v-.04c0-2.03-1.23-3.16-4.23-3.89Z"></path>
      </g>
      <g>
        <rect class="cls-16" x="92.73" y="30.17" width="1.58" height="11.98"></rect>
        <polygon class="cls-16" points="106.45 39.33 99.25 30.17 97.82 30.17 97.82 42.15 99.36 42.15 99.36 32.77 106.71 42.1 106.75 42.15 107.99 42.15 108 30.17 106.45 30.17 106.45 39.33"></polygon>
        <path class="cls-16" d="M115.75,35.4c-2.61-.56-3.08-1.17-3.08-2.16v-.03c0-1.04.98-1.77,2.37-1.77,1.21,0,2.26.4,3.31,1.25l.1.08.92-1.22-.09-.08c-1.28-1.03-2.54-1.47-4.2-1.47-2.31,0-3.98,1.4-3.98,3.32v.03c0,2.18,1.61,2.98,4.04,3.51,2.48.52,2.95,1.14,2.95,2.11v.03c0,1.1-1.02,1.87-2.49,1.87-1.52,0-2.66-.47-3.94-1.63l-.1-.09-.98,1.16.09.08c1.46,1.3,3.01,1.91,4.88,1.91,2.43,0,4.13-1.41,4.13-3.44v-.03c0-1.81-1.17-2.84-3.92-3.44Z"></path>
        <polygon class="cls-16" points="121.36 31.65 125.3 31.65 125.3 42.15 126.89 42.15 126.89 31.65 130.83 31.65 130.83 30.18 121.36 30.17 121.36 31.65"></polygon>
        <rect class="cls-16" x="133.51" y="30.18" width="1.58" height="11.98"></rect>
        <polygon class="cls-16" points="137.77 31.65 141.71 31.65 141.7 42.16 143.29 42.16 143.3 31.65 147.24 31.65 147.24 30.18 137.77 30.18 137.77 31.65"></polygon>
        <path class="cls-16" d="M158.06,37.13c0,2.38-1.24,3.74-3.41,3.74-2.2,0-3.46-1.4-3.46-3.83v-6.86s-1.57,0-1.57,0v6.94c0,3.22,1.91,5.22,5,5.22,3.14,0,5.02-1.99,5.02-5.32v-6.84s-1.57,0-1.57,0v6.94Z"></path>
        <polygon class="cls-16" points="162.01 31.66 165.95 31.66 165.95 42.16 167.54 42.16 167.54 31.66 171.48 31.66 171.48 30.19 162.01 30.18 162.01 31.66"></polygon>
        <polygon class="cls-16" points="175.61 40.71 175.62 36.85 182.02 36.86 182.02 35.4 175.62 35.4 175.62 31.64 182.77 31.65 182.77 30.19 174.04 30.19 174.04 42.17 182.85 42.17 182.85 40.71 175.61 40.71"></polygon>
      </g>
      <g>
        <path class="cls-1" d="M92.79,54.04h4.72v1.23h-3.35v1.27h2.95v1.22h-2.95v1.31h3.4v1.22h-4.77v-6.26Z"></path>
        <path class="cls-1" d="M99.14,54.04h1.48l1.65,2.65,1.65-2.65h1.48v6.26h-1.37v-4.09l-1.76,2.67h-.04l-1.74-2.65v4.06h-1.35v-6.26Z"></path>
        <path class="cls-1" d="M107.25,54.04h2.56c1.49,0,2.4.89,2.4,2.16v.02c0,1.45-1.13,2.2-2.53,2.2h-1.05v1.88h-1.38v-6.26ZM109.72,57.2c.69,0,1.09-.41,1.09-.95v-.02c0-.62-.43-.95-1.12-.95h-1.06v1.91h1.09Z"></path>
        <path class="cls-1" d="M113.3,57.19v-.02c0-1.78,1.4-3.24,3.34-3.24s3.32,1.44,3.32,3.22v.02c0,1.78-1.4,3.24-3.34,3.24s-3.32-1.44-3.32-3.22ZM118.51,57.19v-.02c0-1.07-.79-1.97-1.9-1.97s-1.88.88-1.88,1.95v.02c0,1.07.79,1.97,1.9,1.97s1.88-.88,1.88-1.95Z"></path>
        <path class="cls-1" d="M120.69,54.04h1.48l1.3,4.24,1.4-4.26h1.18l1.4,4.26,1.3-4.24h1.44l-2.14,6.3h-1.2l-1.41-4.1-1.41,4.1h-1.2l-2.14-6.3Z"></path>
        <path class="cls-1" d="M131.55,54.04h4.72v1.23h-3.35v1.27h2.95v1.22h-2.95v1.31h3.4v1.22h-4.77v-6.26Z"></path>
        <path class="cls-1" d="M137.9,54.04h2.86c.8,0,1.41.22,1.82.63.35.35.54.84.54,1.43v.02c0,1.01-.55,1.64-1.34,1.94l1.53,2.24h-1.61l-1.34-2h-1.08v2h-1.38v-6.26ZM140.67,57.08c.67,0,1.06-.36,1.06-.88v-.02c0-.59-.41-.89-1.08-.89h-1.37v1.8h1.4Z"></path>
        <path class="cls-1" d="M144.78,54.04h1.38v6.26h-1.38v-6.26Z"></path>
        <path class="cls-1" d="M148.08,54.04h1.27l2.93,3.85v-3.85h1.36v6.26h-1.17l-3.03-3.98v3.98h-1.36v-6.26Z"></path>
        <path class="cls-1" d="M155.22,57.19v-.02c0-1.78,1.39-3.24,3.28-3.24,1.13,0,1.81.3,2.46.86l-.87,1.05c-.48-.4-.91-.64-1.64-.64-1,0-1.8.89-1.8,1.95v.02c0,1.14.79,1.98,1.9,1.98.5,0,.95-.12,1.3-.38v-.89h-1.39v-1.19h2.72v2.72c-.64.54-1.53.99-2.67.99-1.95,0-3.29-1.37-3.29-3.22Z"></path>
        <path class="cls-1" d="M165.41,54.04h1.47l1.3,4.24,1.4-4.26h1.18l1.4,4.26,1.3-4.24h1.44l-2.14,6.3h-1.2l-1.41-4.1-1.41,4.1h-1.2l-2.14-6.3Z"></path>
        <path class="cls-1" d="M176.28,54.04h4.72v1.23h-3.35v1.27h2.95v1.22h-2.95v1.31h3.4v1.22h-4.77v-6.26Z"></path>
        <path class="cls-1" d="M182.62,54.04h1.38v5.01h3.12v1.25h-4.5v-6.26Z"></path>
        <path class="cls-1" d="M188.51,54.04h1.38v5.01h3.12v1.25h-4.5v-6.26Z"></path>
        <path class="cls-1" d="M194.4,54.04h1.27l2.93,3.85v-3.85h1.36v6.26h-1.17l-3.03-3.98v3.98h-1.36v-6.26Z"></path>
        <path class="cls-1" d="M201.81,54.04h4.72v1.23h-3.35v1.27h2.95v1.22h-2.95v1.31h3.4v1.22h-4.77v-6.26Z"></path>
        <path class="cls-1" d="M207.73,59.39l.81-.97c.56.46,1.15.76,1.87.76.56,0,.9-.22.9-.59v-.02c0-.35-.21-.53-1.26-.8-1.26-.32-2.07-.67-2.07-1.91v-.02c0-1.14.91-1.89,2.19-1.89.91,0,1.69.29,2.33.8l-.72,1.04c-.55-.38-1.1-.62-1.63-.62s-.8.24-.8.54v.02c0,.41.27.55,1.35.82,1.27.33,1.99.79,1.99,1.88v.02c0,1.24-.95,1.94-2.3,1.94-.95,0-1.9-.33-2.66-1Z"></path>
        <path class="cls-1" d="M213.72,59.39l.81-.97c.56.46,1.15.76,1.87.76.56,0,.9-.22.9-.59v-.02c0-.35-.21-.53-1.26-.8-1.26-.32-2.08-.67-2.08-1.91v-.02c0-1.14.91-1.89,2.19-1.89.91,0,1.69.29,2.33.8l-.72,1.04c-.55-.38-1.1-.62-1.63-.62s-.81.24-.81.54v.02c0,.41.27.55,1.35.82,1.27.33,1.99.79,1.99,1.88v.02c0,1.24-.95,1.94-2.3,1.94-.95,0-1.91-.33-2.66-1Z"></path>
        <path class="cls-1" d="M222.78,54.04h1.48l1.3,4.24,1.4-4.26h1.18l1.4,4.26,1.3-4.24h1.44l-2.14,6.3h-1.2l-1.41-4.1-1.41,4.1h-1.2l-2.14-6.3Z"></path>
        <path class="cls-1" d="M233.01,57.19v-.02c0-1.78,1.41-3.24,3.34-3.24s3.32,1.44,3.32,3.22v.02c0,1.78-1.41,3.24-3.34,3.24s-3.32-1.44-3.32-3.22ZM238.22,57.19v-.02c0-1.07-.79-1.97-1.9-1.97s-1.88.88-1.88,1.95v.02c0,1.07.79,1.97,1.9,1.97s1.88-.88,1.88-1.95Z"></path>
        <path class="cls-1" d="M241.24,54.04h2.86c.8,0,1.41.22,1.83.63.35.35.54.84.54,1.43v.02c0,1.01-.55,1.64-1.34,1.94l1.53,2.24h-1.61l-1.34-2h-1.08v2h-1.38v-6.26ZM244.01,57.08c.67,0,1.05-.36,1.05-.88v-.02c0-.59-.41-.89-1.08-.89h-1.37v1.8h1.4Z"></path>
        <path class="cls-1" d="M248.06,54.04h1.38v5.01h3.12v1.25h-4.5v-6.26Z"></path>
        <path class="cls-1" d="M253.94,54.04h2.44c1.97,0,3.33,1.35,3.33,3.11v.02c0,1.76-1.36,3.13-3.33,3.13h-2.44v-6.26ZM256.39,59.06c1.13,0,1.89-.76,1.89-1.87v-.02c0-1.11-.76-1.89-1.89-1.89h-1.06v3.77h1.06Z"></path>
        <path class="cls-1" d="M260.45,54.04h1.48l1.3,4.24,1.41-4.26h1.18l1.41,4.26,1.3-4.24h1.44l-2.14,6.3h-1.2l-1.41-4.1-1.41,4.1h-1.2l-2.14-6.3Z"></path>
        <path class="cls-1" d="M271.38,54.04h1.38v6.26h-1.38v-6.26Z"></path>
        <path class="cls-1" d="M274.68,54.04h2.44c1.97,0,3.33,1.35,3.33,3.11v.02c0,1.76-1.36,3.13-3.33,3.13h-2.44v-6.26ZM277.12,59.06c1.13,0,1.89-.76,1.89-1.87v-.02c0-1.11-.76-1.89-1.89-1.89h-1.06v3.77h1.06Z"></path>
        <path class="cls-1" d="M282.02,54.04h4.72v1.23h-3.35v1.27h2.95v1.22h-2.95v1.31h3.4v1.22h-4.77v-6.26Z"></path>
      </g>
      <path class="cls-2" d="M92.38,48.06c0-.3.24-.54.54-.54h193.75c.3,0,.54.24.54.54s-.24.54-.54.54H92.92c-.3,0-.54-.24-.54-.54Z"></path>
      <text class="cls-17" transform="translate(184.87 39.94)">
        <tspan x="0" y="0">®</tspan>
      </text>
    </g>
  </g>
</svg>
