<svg width="159" height="39" viewBox="0 0 159 39" fill="none" xmlns="http://www.w3.org/2000/svg">
	<g clip-path="url(#clip0_189_759)">
		<path d="M36.2408 17.7357L36.2098 28.4452C36.2098 30.8905 35.5576 32.7476 34.2223 33.9857C32.8869 35.2238 31.0857 35.9047 28.7256 35.9047C26.3965 35.9047 24.6264 35.2857 23.3221 33.9857C22.0488 32.7785 21.4277 31.0143 21.3656 28.6928V21.9452C21.3656 21.8833 21.3656 21.8214 21.3656 21.7285C21.3035 16.25 18.0738 11.8547 12.2355 11.8547C6.3041 11.8547 0.652148 15.5381 0.124219 21.7595C0.0621094 22.6881 0 23.6476 0 24.6071V38.969H3.04336C3.04336 36.9262 3.04336 34.8524 3.04336 32.8095C3.04336 31.0762 3.04336 29.3428 3.07441 27.6095C3.07441 26.3714 3.07441 25.1333 3.10547 23.8952C3.10547 22.2857 3.13652 20.8 3.91289 19.3452C4.50293 18.2 5.40352 17.2095 6.42832 16.4357C7.48418 15.6619 8.66426 15.1047 9.96855 14.8571C12.4219 14.3309 15.0305 14.919 16.7074 16.8381C17.9186 18.2619 18.3223 20.119 18.3223 21.9452V28.4762C18.3223 28.569 18.3223 28.6309 18.3223 28.6928C18.3533 31.2 19.1297 33.769 20.8066 35.6881C22.7941 37.9166 25.8064 38.7214 28.7256 38.7214C31.5826 38.7214 34.5328 37.8857 36.6135 35.8738C38.601 33.9238 39.2531 31.1381 39.2531 28.4143V17.3333C37.5451 17.2714 36.2408 17.7357 36.2408 17.7357Z" fill="white"/>
		<path d="M66.6434 13.7119C62.5441 11.2357 57.6064 11.3905 53.5383 13.8048L56.0848 15.6C57.2959 15.0119 58.6623 14.7333 60.1219 14.7333C62.0162 14.7333 63.6932 15.1976 65.1838 16.1262C69.9973 19.1595 71.4258 25.9381 68.5998 31.0452C66.9229 34.0476 63.6 36.0595 60.1219 36.0595C56.5506 36.0595 53.4141 34.0476 51.644 30.9524C49.7807 27.6405 49.5943 23.3381 51.6129 19.9333C52.1408 19.0048 52.7309 18.2 53.4451 17.4881C53.6315 17.3024 53.8488 17.0857 54.0662 16.931C54.0352 16.931 54.0352 16.9 54.0352 16.8691C51.2092 14.4857 47.6068 13.1548 44.0045 12.4738C42.4518 12.1952 40.899 12.0405 39.3463 12.0095H39.2842V11.9167V6.68572C39.2842 5.81905 39.4084 5.1381 39.6879 4.55C39.9674 3.96191 40.34 3.49762 40.8369 3.1881C41.3338 2.84762 41.9549 2.69286 42.6691 2.69286C43.0729 2.69286 43.5076 2.75477 43.8492 2.84762C44.2219 2.94048 44.5324 3.03334 44.9672 3.1881L46.3336 0.773814C46.3025 0.742861 46.2404 0.711909 46.2094 0.680957C45.3398 0.185718 44.315 0.0619089 43.3524 0.0309566C42.4207 4.17233e-06 41.458 0.0928613 40.5574 0.371433C39.6568 0.650004 38.8184 1.14524 38.1041 1.76429C36.8309 2.90953 36.1787 4.58096 36.1787 6.71667V11.9167V12.0714C31.7068 12.4119 28.5082 13.5262 28.5082 13.5262C28.5082 13.5262 31.1479 17.0548 31.1479 17.0857C31.0857 17.0238 33.8807 16.1571 34.067 16.0952C35.2471 15.7857 36.4582 15.5691 37.6693 15.4452C38.1973 15.3833 38.7563 15.3524 39.2842 15.3214C40.9301 15.2595 42.576 15.3214 44.1908 15.5071C46.2094 15.7238 48.1969 16.1571 50.1844 16.6214C49.7186 17.1786 49.3148 17.7667 48.9732 18.4476C46.1162 23.5548 46.8305 30.4571 50.8055 34.8214C53.1967 37.4214 56.6127 38.8762 60.1529 38.8762C62.6063 38.8762 64.7801 38.2881 66.7055 37.1429C71.8916 34.0167 74.0965 27.2381 72.5438 21.5119C71.6121 18.2929 69.5315 15.4452 66.6434 13.7119Z" fill="white"/>
		<path d="M127.014 13.65C126.983 13.6191 127.014 13.6191 127.014 13.65C123.815 11.6381 119.405 12.1643 116.238 13.9286C115.555 14.3 114.902 14.7643 114.312 15.2596C113.35 16.0953 112.666 16.9619 112.232 17.8905C111.642 16.2191 110.741 14.8881 109.437 13.9596C106.021 11.4524 101.238 12.0096 97.667 13.9286C94.0336 15.9096 92.4188 19.5 92.3256 23.5238C92.3256 23.6477 92.2945 23.8024 92.3256 23.9262L92.3877 39L95.4932 38.9691L95.4621 23.5238C95.5242 20.8619 96.4869 18.1072 98.7539 16.5286C102.077 14.2072 107.698 14.5477 109.25 18.7572C109.654 19.8715 109.84 21.1405 109.84 22.5024V39H112.884V22.6881C112.884 17.3024 120.368 12.8453 124.964 16.1572C128.038 18.3548 127.697 22.3477 127.697 25.6905C127.697 28.9096 127.697 32.1596 127.697 35.3786C127.697 35.5643 127.697 38.9691 127.697 38.9691H130.74C130.74 38.9691 130.74 22.5334 130.74 22.5024C130.771 19.3453 129.902 15.4762 127.014 13.65Z" fill="white"/>
		<path d="M154.062 14.331C152.727 13.2786 151.112 12.5048 149.249 12.1643C146.205 11.5762 143.1 12.0095 140.522 13.681C138.721 14.8262 137.324 16.4048 136.268 18.4167C135.212 20.4286 134.684 22.75 134.684 25.381C134.684 27.95 135.212 30.2714 136.237 32.3143C137.262 34.3571 138.69 35.9976 140.491 37.1738C142.324 38.35 144.342 38.969 146.609 38.969C148.069 38.969 149.435 38.6905 150.646 38.1643C151.857 37.6381 152.975 36.9571 153.845 36.1214C154.714 35.3167 155.398 34.45 155.926 33.5214V39H158.969C158.969 34.2024 158.845 30.1476 158.845 25.381C158.876 20.5214 157.199 16.869 154.062 14.331ZM154.963 30.8595C154.155 32.5 153.069 33.8 151.671 34.7286C150.274 35.6571 148.69 36.1214 146.92 36.1214C145.119 36.1214 143.504 35.6571 142.106 34.7286C140.709 33.8 139.622 32.531 138.814 30.8595C138.007 29.219 137.665 27.3929 137.665 25.35C137.665 23.3071 138.069 21.45 138.846 19.8714C139.622 18.2929 140.74 17.0238 142.168 16.1262C143.566 15.1976 145.15 14.7643 146.92 14.7643C148.721 14.7643 150.305 15.2286 151.671 16.1881C153.069 17.1476 154.155 18.3857 154.963 19.9952C155.77 21.5738 156.143 23.369 156.143 25.381C156.143 27.3929 155.77 29.1881 154.963 30.8595Z" fill="white"/>
		<path d="M89.0959 11.9166C88.5369 11.8238 87.9469 11.7928 87.3568 11.8547C86.2389 11.9785 85.152 12.35 84.1582 12.8761C82.1397 13.9595 80.5559 15.7238 79.4068 17.7047C78.91 18.5404 78.5063 19.4071 78.2268 20.3047C76.7672 24.5452 77.0156 29.1261 77.0156 33.5523C77.0156 33.6452 77.0156 33.769 77.0156 33.8928V38.969H80.059C80.059 36.988 79.9969 35.0071 79.9969 33.0261C79.9969 29.869 79.8416 26.6809 80.3695 23.5547C80.7732 21.1714 81.6738 18.9738 83.2576 17.1166C84.065 16.219 85.0588 15.4452 86.2078 15.0119C87.4811 14.5476 88.6611 14.6714 89.8723 15.1047L91.3318 12.5666C90.5865 12.319 89.8723 12.0404 89.0959 11.9166Z" fill="white"/>
	</g>
	<defs>
		<clipPath id="clip0_189_759">
			<rect width="159" height="39" fill="white"/>
		</clipPath>
	</defs>
</svg>
